<svg aria-hidden="true" version="1.1" xmlns="http://www.w3.org/2000/svg" xmlns:xlink="http://www.w3.org/1999/xlink">
<defs>
<symbol id="casino" viewBox="0 0 32 32">
<path d="M9.997 19.019c3.14 0.504 5.484 3.235 5.484 6.469 0 3.613-2.931 6.511-6.489 6.511-3.6 0-6.531-2.899-6.531-6.511s2.889-6.511 6.489-6.553c-0.209-6.679 1.549-13.947 6.447-18.778 0.209-0.21 0.544-0.21 0.754 0s0.209 0.546 0 0.756c-2.093 2.058-3.517 4.495-4.438 6.973 1.465 5.041 4.479 9.41 6.573 12.014 2.554-2.647 6.741-2.731 9.336-0.126 2.554 2.52 2.554 6.679 0 9.241-2.512 2.52-6.656 2.52-9.21 0-2.177-2.184-2.512-5.713-0.795-8.276-2.009-2.436-4.814-6.427-6.489-11.174-1.089 3.781-1.214 7.393-1.13 9.452l-0.001 0.001zM13.723 6.711c2.679-3.487 11.765-0.966 13.313 4.369-5.777 3.277-11.722 3.193-13.313-4.369z"></path>
</symbol>
<symbol id="colossus" viewBox="0 0 32 32">
<path d="M18.339 30.317c0-0.536 0.083-1.071 0.083-1.5v-0.107c0.083-0.429 0.083-0.857 0.167-1.286v-0.107c0-0.107 0.083-0.321 0.083-0.428v-0.107c0-0.214 0.083-0.321 0.083-0.428 0 0 0 0 0-0.107s0.083-0.214 0.083-0.321v-0.107c0.083-0.107 0.083-0.214 0.167-0.321 1.249-2.035 2.999-0.857 5.415-2.464 0 0-2.082-1.5-2.749-2.035s3.249 0.536 6.164-1.071l-2.082-1.393 4.415-2.143 0.5-0.214c0.75-0.428 1.333-0.857 1.333-0.857-1.666 0.214-4.831-2.25-6.414-3.642-0.916-1.071-1.666-2.035-1.999-2.785-0.5-1.071-1.749-2.571-3.499-3.964 1.083-0.214 2.082-0.643 2.416-0.857-0.25 0.107-1 0.107-3.332-0.857-1.499-0.643-2.416-0.75-2.999-0.75-0.083 0-0.083 0-0.167-0.107 1.749-0.964 2.332-2.357 2.332-2.357s-0.5 0.536-3.832 0.75c-1.416 0.107-2.499 0.321-3.249 0.536-2.999 0.643-3.249 4.714-3.582 5.463-0.916 0.214-1.583 0.428-1.749 0.75-1.25 1.821-4.415 4.928-5.748 6.32-0.5 0.536 0.167 1.5 0.5 2.25 0.167 0.536 0 1.071 0.333 1.714 0 0 1.083 1.178 2.082 0.75l1.333 1.5v-2.035c0.5-0.107 1.499-0.214 1.833 0.214 0.167 0.214 0.25 0.536 0.25 0.75-0.333 0.107-1.166 0.536-2.082 1.286l-0.916-0.429 0.167 1.071c-0.5 0.429-0.5 0.536-0.5 0.536 0.083 0.429 0.333 1.607 1.333 1.928 1.499 0.536 2.249-1.286 3.415-2.035 0.666-1.286 3.332-6.642 3.249-7.606-0.083-1.178 0.583-4.821 0.583-4.821s-0.167 2.357 0 3.857c0.167 1.5-0.416 3.214-1.166 4.607s-2.332 5.356-2.416 5.571c-0.083 0.643-0.167 1.286-0.083 1.821 0 0 0.167 2.464 1.499 3.749 1.249 1.286 1.499 2.035 1.499 2.035s-0.083-1.607-0.25-2.678c0.167 0.107 0.333 0.214 0.583 0.429 7.164 8.677 3.569-0.964 6.914 2.035zM5.677 11.141c0 0 0.333-2.143 2.249-0.964 0 0-1.333 1.071-2.249 0.964zM12.591 7.392c0-0.964-0.083-1.928-0.25-2.035s-0.333-0.107-0.5-0.107c-0.333 0.107-0.583 0.321-0.75 0.643l-0.5 0.857-0.833-0.321c0 0 1.249-3.642 2.666-3.428s0.999 4.606 0.999 4.606l-0.833-0.214z"></path>
</symbol>
<symbol id="jackpot" viewBox="0 0 32 32">
<path d="M1.468 10.704c-0.687 2.283 1.469 3.691 1.469 3.691 2.742 1.791 5.902 1.775 9.039 1.548l0.019 0.116c-2.857 0.919-5.98 1.959-7.715 4.59-0.536 0.813-0.904 1.844-0.726 2.825 0.162 0.895 0.764 1.7 1.578 2.112s1.822 0.421 2.643 0.024l-0.014 0.071c0 0-0.286 2.347 1.977 3.122s3.763-1.312 3.763-1.312c1.517-2.112 2.476-4.696 2.76-7.241 1.328 3.287 2.020 3.835 1.446 9.764-0.063 0.291 0.122 0.578 0.415 0.641 0.038 0.009 0.077 0.012 0.115 0.012 0.249 0 0.474-0.172 0.529-0.425 0.727-5.945-0.132-7.115-1.52-10.478 1.409 2.155 3.192 4.064 5.654 5.126 0 0 2.366 1.021 3.904-0.805s0.080-3.69 0.080-3.69l-0.049-0.053c0.909-0.081 1.769-0.606 2.253-1.376s0.584-1.769 0.261-2.62c-0.355-0.933-1.203-1.627-2.083-2.049-2.847-1.365-6.062-0.655-8.987 0.022l-0.044-0.11c2.807-1.414 5.524-3.022 6.948-5.963 0 0 1.12-2.313-0.649-3.918s-3.699-0.229-3.699-0.229l-0.055 0.046c-0.044-0.908-0.536-1.784-1.289-2.298s-1.752-0.653-2.617-0.366c-0.95 0.315-1.681 1.131-2.14 1.989-1.485 2.778-0.903 6.006-0.342 8.944l-0.048 0.019c-1.038-2.806-2.208-5.872-4.918-7.491-0.837-0.501-1.886-0.825-2.863-0.608-0.891 0.198-1.675 0.83-2.055 1.656s-0.348 1.83 0.083 2.631l-0.072-0.011c0 0-2.366-0.188-3.053 2.095z"></path>
</symbol>
<symbol id="live-bet" viewBox="0 0 32 32">
<path d="M0 0v15.386h6.516c0.429-1.455 1.108-2.808 1.985-4.013-0.758-1.051-1.194-2.327-1.194-3.68 0-3.59 3.008-6.513 6.695-6.513 2.895 0 5.375 1.801 6.305 4.308 2.849 0.026 5.494 0.872 7.697 2.301v-7.789h-28.005zM5.481 14.2h-4.261v-4.141h1.22v2.955h3.041v1.186zM5.481 2.366h-3.041v2.955h-1.22v-4.141h4.261v1.186zM26.791 5.321h-1.22v-2.955h-3.041v-1.186h4.261v4.141z"></path>
<path d="M23.081 22.624l1.136-4.418-4.083-2.267-4.083 2.267 1.136 4.418h5.893z"></path>
<path d="M15.224 17.102l4.212-2.339v-3.26l-4.965-2.413c-0.996 0.527-1.905 1.191-2.703 1.962l1.285 4.994 2.172 1.055z"></path>
<path d="M27.217 16.047l1.285-4.994c-0.798-0.772-1.707-1.434-2.703-1.962l-4.966 2.413v3.26l4.212 2.339 2.173-1.055z"></path>
<path d="M20.134 10.325l4.003-1.945c-1.253-0.439-2.597-0.69-4.003-0.69s-2.75 0.251-4.003 0.69l4.003 1.945z"></path>
<path d="M29.616 12.315l-1.017 3.957 3.402 2.835c-0.028-2.548-0.914-4.893-2.384-6.792z"></path>
<path d="M24.212 30.053c1.939-0.692 3.643-1.855 4.958-3.357h-3.663l-1.295 3.357z"></path>
<path d="M10.653 12.315c-1.469 1.899-2.356 4.244-2.384 6.792l3.402-2.835-1.018-3.957z"></path>
<path d="M12.555 17.324l-4.17 3.473c0.194 1.379 0.629 2.683 1.28 3.863h5.208l1.017-1.484-1.244-4.836-2.092-1.016z"></path>
<path d="M10.555 26.018c1.273 1.692 2.999 3.042 5.014 3.862l-0.883-3.862h-4.131z"></path>
<path d="M25.623 18.34l-1.256 4.884 1.088 2.115h4.734c0.874-1.353 1.464-2.891 1.696-4.542l-4.17-3.473-2.092 1.016z"></path>
<path d="M23.194 23.981h-6.178l-1.024 1.493 1.122 4.902c0.967 0.248 1.976 0.393 3.021 0.393 0.822 0 1.625-0.082 2.401-0.238l1.727-4.475-1.068-2.075z"></path>
<path d="M19.002 5.526c-3.898 0.295-7.348 2.122-9.715 4.859-0.475-0.789-0.752-1.712-0.752-2.693 0-2.936 2.447-5.321 5.468-5.321 2.229 0 4.149 1.295 5 3.154z"></path>
</symbol>
<symbol id="live-casino" viewBox="0 0 32 32">
<path d="M26.68 15.997c0-5.888-4.79-10.678-10.678-10.678s-10.678 4.79-10.678 10.678 4.79 10.678 10.678 10.678c5.888 0 10.678-4.79 10.678-10.678zM22.006 18.002c-0.868 0-1.608-0.561-1.882-1.335h-1.542c-0.24 0.934-0.974 1.675-1.915 1.915v1.535c0.781 0.274 1.335 1.014 1.335 1.889 0 1.101-0.894 2.002-2.002 2.002-1.101 0-2.002-0.901-2.002-2.002 0-0.874 0.561-1.608 1.335-1.889v-1.535c-0.934-0.24-1.675-0.981-1.915-1.915h-1.542c-0.267 0.774-1.008 1.335-1.882 1.335-1.101 0-2.002-0.901-2.002-2.002 0-1.108 0.901-2.002 2.002-2.002 0.874 0 1.615 0.554 1.882 1.335h1.542c0.24-0.934 0.981-1.675 1.915-1.915v-1.542c-0.774-0.274-1.335-1.014-1.335-1.882 0-1.108 0.901-2.002 2.002-2.002 1.108 0 2.002 0.894 2.002 2.002 0 0.868-0.554 1.608-1.335 1.882v1.542c0.941 0.24 1.675 0.981 1.915 1.915h1.542c0.274-0.781 1.014-1.335 1.882-1.335 1.108 0 2.002 0.894 2.002 2.002 0 1.101-0.894 2.002-2.002 2.002z"></path>
<path d="M8.58 30.187c2.035 1.069 4.326 1.713 6.755 1.813v-4.024c-1.7-0.094-3.305-0.538-4.745-1.269l-2.010 3.48z"></path>
<path d="M23.421 1.811c-2.034-1.067-4.323-1.711-6.752-1.811v4.018c1.7 0.094 3.305 0.538 4.745 1.269l2.007-3.476z"></path>
<path d="M23.423 30.186l-2.009-3.48c-1.441 0.731-3.045 1.175-4.745 1.269v4.024c2.43-0.1 4.72-0.745 6.754-1.814z"></path>
<path d="M22.572 5.952c1.383 0.908 2.567 2.091 3.474 3.475l3.472-2.004c-1.265-1.987-2.955-3.677-4.942-4.942l-2.004 3.472z"></path>
<path d="M26.711 21.409l3.478 2.008c1.068-2.035 1.711-4.325 1.811-6.753h-4.019c-0.094 1.7-0.538 3.305-1.269 4.745z"></path>
<path d="M26.711 10.584c0.731 1.44 1.175 3.045 1.269 4.745h4.019c-0.101-2.429-0.744-4.718-1.812-6.752l-3.477 2.007z"></path>
<path d="M9.432 26.041c-1.383-0.908-2.567-2.092-3.475-3.475l-3.475 2.006c1.265 1.988 2.956 3.678 4.943 4.944l2.007-3.475z"></path>
<path d="M8.582 1.811l2.007 3.476c1.44-0.731 3.045-1.175 4.745-1.269v-4.018c-2.428 0.1-4.718 0.743-6.752 1.811z"></path>
<path d="M26.046 22.567c-0.908 1.383-2.091 2.567-3.474 3.474l2.006 3.475c1.987-1.266 3.677-2.956 4.942-4.944l-3.473-2.006z"></path>
<path d="M0 16.664c0.1 2.429 0.744 4.719 1.812 6.754l3.48-2.009c-0.731-1.441-1.175-3.045-1.269-4.745h-4.023z"></path>
<path d="M5.957 9.427c0.908-1.383 2.092-2.567 3.475-3.475l-2.005-3.472c-1.988 1.265-3.678 2.954-4.944 4.941l3.473 2.005z"></path>
<path d="M1.814 8.576c-1.069 2.034-1.713 4.324-1.814 6.753h4.023c0.094-1.7 0.538-3.304 1.269-4.745l-3.478-2.008z"></path>
</symbol>
<symbol id="cities" viewBox="0 0 32 32">
<path d="M0 10.934h3.945c0.402 0 0.727 0.33 0.727 0.738v8.162c0 0.409-0.325 0.738-0.726 0.738h-3.946v4.78h15.273v-4.018c-2.719-0.363-4.823-2.725-4.823-5.582s2.106-5.218 4.823-5.582v-4.018h-15.273z"></path>
<path d="M3.217 12.412h-3.217v6.686h3.217zM11.904 15.754c0 2.041 1.457 3.74 3.369 4.090v-8.178c-1.911 0.35-3.369 2.048-3.369 4.089zM20.097 15.754c0-2.041-1.457-3.739-3.37-4.089v8.178c1.913-0.35 3.37-2.049 3.37-4.090zM32 12.412h-3.217v6.686h3.216z"></path>
<path d="M16.727 10.172c2.718 0.363 4.825 2.725 4.825 5.582s-2.107 5.218-4.825 5.582v4.018h15.274v-4.78h-3.945c-0.402-0.003-0.727-0.33-0.727-0.732 0-0.002 0-0.004 0-0.006v0-8.162c0-0.409 0.325-0.738 0.726-0.738h3.945v-4.78h-15.273z"></path>
</symbol>
<symbol id="rally" viewBox="0 0 32 32">
<path d="M30.862 4.844c-6.945-3.729-14.972-2.1-22.55-1.578-2.7 0.185-5.403 0.559-5.403 0.559s-0.922 4.575-0.922 7.438-0.215 8.684-0.532 9.957-1.455 6.805-1.455 6.805 0.721 0.369 3.252 0.369c7.812 0 16.623-2.971 23.858 0.911 0.727 0.438 1.398 0.254 1.519-0.522l3.321-21.637c0.119-0.775 0.119-1.674-1.088-2.303zM7.028 5.815c2.543-0.006 5.047-0.254 7.578-0.54-0.329 2.158-0.665 4.32-0.993 6.476-2.523 0.287-5.029 0.534-7.578 0.542 0.33-2.164 0.665-4.32 0.993-6.476zM11.418 25.692c-2.505 0.286-4.997 0.528-7.52 0.534l1.004-6.572c2.523-0.006 5.017-0.255 7.52-0.534zM12.48 19.114c0.379-2.455 0.753-4.905 1.132-7.36 2.523-0.281 5.022-0.517 7.566-0.491-0.374 2.455-0.753 4.906-1.126 7.36-2.549-0.025-5.047 0.204-7.572 0.491zM25.889 26.683c-2.245-0.914-4.395-1.342-6.806-1.488l1.007-6.572c2.41 0.148 4.56 0.574 6.806 1.489zM28.021 12.751c-2.257-0.922-4.421-1.342-6.849-1.488 0.329-2.156 0.665-4.32 0.992-6.476 2.43 0.148 4.593 0.566 6.85 1.489q-0.491 3.233-0.993 6.476z"></path>
</symbol>
<symbol id="tournament" viewBox="0 0 32 32">
<path d="M26.908 4.87h-1.627c0.025-0.526 0.049-1.051 0.049-1.589 0-0.526-0.185-1.051-0.514-1.435-0.33-0.385-0.77-0.615-1.248-0.615h-16.368c-0.476 0-0.929 0.23-1.259 0.615-0.313 0.379-0.502 0.87-0.502 1.405 0 0.011 0 0.021 0 0.032l-0-0.002c0 0.538 0.025 1.063 0.049 1.588h-1.627c-1.444 0-2.63 1.231-2.63 2.757v1.883c0 4.665 3.413 8.496 7.769 8.892 1.227 3.415 2.801 4.965 4.55 5.582l-0.905 5.454h-2.324c-0.677 0-1.223 0.574-1.223 1.281s0.548 1.282 1.223 1.282h10.126c0.677 0 1.223-0.575 1.223-1.282s-0.546-1.28-1.223-1.28h-2.321l-0.906-5.455c1.749-0.524 3.417-2.494 4.734-5.902 4.368-1.243 7.585-5.42 7.585-10.379v-0.078c0-1.525-1.186-2.754-2.63-2.754zM16.927 7.83l1.516 0.23c0.367 0.052 0.649 0.32 0.77 0.679 0.111 0.359 0.012 0.756-0.245 1.025l-1.1 1.127 0.256 1.575c0.009 0.053 0.015 0.113 0.015 0.175 0 0.326-0.148 0.618-0.38 0.812l-0.002 0.001c-0.324 0.218-0.686 0.266-1.015 0.064l-1.358-0.745-1.358 0.743c-0.13 0.074-0.286 0.118-0.452 0.118-0.208 0-0.399-0.069-0.553-0.184l0.002 0.002c-0.242-0.191-0.395-0.484-0.395-0.813 0-0.062 0.005-0.122 0.016-0.18l-0.001 0.006 0.258-1.589-1.102-1.115c-0.179-0.187-0.29-0.442-0.29-0.723 0-0.108 0.016-0.212 0.047-0.31l-0.002 0.007c0.123-0.358 0.416-0.628 0.77-0.679l1.518-0.23 0.684-1.449c0.156-0.324 0.48-0.545 0.856-0.55h0.001c0.367 0 0.697 0.204 0.857 0.55zM3.676 9.509v-1.883c0-0.103 0.086-0.193 0.183-0.193h1.822c0.32 3.024 0.98 5.742 1.873 8.022-2.265-0.923-3.878-3.242-3.878-5.946zM27.090 7.702c0 2.858-1.419 5.382-3.547 6.855 0.734-2.089 1.259-4.497 1.541-7.125h1.823c0.098 0 0.185 0.090 0.185 0.192z"></path>
</symbol>
<symbol id="weekly" viewBox="0 0 32 32">
<path d="M24.519 12.864v-10.535c-0.002-0.305-0.13-0.58-0.334-0.775l-0-0c-0.209-0.2-0.493-0.322-0.806-0.322-0 0-0.001 0-0.001 0h-8c-0.001 0-0.002 0-0.003 0-0.242 0-0.467 0.074-0.654 0.2l0.004-0.003c-0.188 0.126-0.333 0.304-0.416 0.513l-0.003 0.008c-0.045 0.113-0.071 0.244-0.071 0.381 0 0.098 0.013 0.193 0.038 0.283l-0.002-0.007c0.058 0.218 0.185 0.412 0.362 0.559l7.6 6.265v3.434l-7.377 9.892-4.906-4.718c-0.209-0.2-0.493-0.322-0.806-0.322-0 0-0.001 0-0.001 0h0c-0.001 0-0.002 0-0.004 0-0.312 0-0.596 0.122-0.806 0.322l0.001-0c-1.793 2.666-7.392 11.225-8.229 12.506-0.066 0.1-0.106 0.224-0.106 0.356 0 0.002 0 0.003 0 0.005v-0c0 0.292 0.121 0.571 0.335 0.777 0.214 0.207 0.505 0.322 0.809 0.322h29.712c0.001 0 0.002 0 0.002 0 0.313 0 0.597-0.123 0.807-0.323l-0 0c0.205-0.196 0.333-0.47 0.335-0.775v-1.726c-0-0.189-0.043-0.368-0.119-0.528l0.003 0.007z"></path>
</symbol>
<symbol id="achievements" viewBox="0 0 32 32">
<path d="M18.26 10.751l2.384 0.338c0.345 0.049 0.423 0.283 0.176 0.523l-1.726 1.642c-0.25 0.238-0.407 0.71-0.348 1.046l0.406 2.318c0.062 0.338-0.145 0.484-0.455 0.324l-2.13-1.093c-0.166-0.076-0.36-0.12-0.564-0.12s-0.398 0.044-0.573 0.123l0.009-0.004-2.132 1.093c-0.31 0.16-0.517 0.014-0.457-0.324l0.407-2.318c0.059-0.336-0.098-0.807-0.348-1.046l-1.724-1.642c-0.252-0.239-0.172-0.475 0.175-0.523l2.382-0.338c0.348-0.049 0.757-0.341 0.913-0.647l1.066-2.108c0.154-0.308 0.407-0.308 0.562 0l1.066 2.108c0.155 0.308 0.566 0.598 0.911 0.647z"></path>
<path d="M27.366 13.652c-0.267-0.597-0.267-1.57 0-2.169l0.834-1.86c0.267-0.596 0.016-1.351-0.559-1.681l-1.796-1.025c-0.575-0.329-1.161-1.118-1.303-1.753l-0.443-1.984c-0.143-0.636-0.801-1.103-1.465-1.039l-2.068 0.202c-0.662 0.064-1.612-0.238-2.111-0.671l-1.55-1.349c-0.244-0.202-0.561-0.324-0.906-0.324s-0.661 0.122-0.908 0.326l0.002-0.002-1.551 1.349c-0.498 0.433-1.449 0.735-2.111 0.671l-2.068-0.201c-0.665-0.063-1.323 0.406-1.465 1.041l-0.443 1.982c-0.143 0.636-0.729 1.425-1.305 1.753l-1.793 1.025c-0.576 0.33-0.828 1.086-0.56 1.681l0.833 1.858c0.267 0.596 0.268 1.569 0 2.166l-0.834 1.861c-0.268 0.596-0.015 1.351 0.561 1.681l1.792 1.022c0.575 0.331 1.163 1.12 1.305 1.754l0.444 1.984c0.144 0.636 0.8 1.104 1.465 1.039l2.065-0.202c0.665-0.064 1.612 0.238 2.111 0.67l1.553 1.35c0.244 0.202 0.56 0.325 0.905 0.325s0.661-0.123 0.907-0.327l-0.002 0.002 1.552-1.348c0.497-0.433 1.446-0.735 2.111-0.672l2.068 0.202c0.663 0.064 1.322-0.404 1.465-1.039l0.443-1.983c0.14-0.635 0.729-1.425 1.302-1.753l1.796-1.025c0.574-0.33 0.827-1.086 0.559-1.682zM16 19.902c-4.148 0-7.51-3.284-7.51-7.335 0-4.049 3.362-7.334 7.51-7.334s7.511 3.285 7.511 7.335-3.364 7.334-7.511 7.334z"></path>
<path d="M9.492 24.225l2.127-0.203c0.372 0 0.884 0.197 1.078 0.363l1.47 1.28-2.146 5.76c-0.129 0.333-0.443 0.566-0.813 0.572h-0.001c-0.009 0-0.019 0-0.029 0-0.361 0-0.673-0.213-0.815-0.52l-0.002-0.006-1.012-2.279-2.273 1.113c-0.117 0.058-0.254 0.093-0.4 0.093-0.229 0-0.438-0.084-0.598-0.224l0.001 0.001c-0.183-0.159-0.299-0.392-0.299-0.652 0-0.106 0.019-0.208 0.055-0.302l-0.002 0.006 2.012-5.398c0.401 0.256 0.89 0.408 1.415 0.408 0.082 0 0.163-0.004 0.243-0.011l-0.010 0.001zM22.758 24.239c0.502 0 0.982-0.154 1.396-0.41l2.012 5.398c0.034 0.088 0.053 0.191 0.053 0.297 0 0.26-0.116 0.494-0.298 0.652l-0.001 0.001c-0.159 0.138-0.368 0.222-0.596 0.222-0.146 0-0.284-0.034-0.406-0.095l0.005 0.002-2.272-1.111-1.012 2.278c-0.145 0.314-0.457 0.527-0.818 0.527-0.010 0-0.021-0-0.031-0.001l0.002 0c-0.369-0.011-0.682-0.243-0.81-0.567l-0.002-0.006-2.146-5.76 1.47-1.279c0.193-0.166 0.7-0.362 1.13-0.362l2.076 0.201q0.126 0.012 0.25 0.012z"></path>
</symbol>
<symbol id="vip" viewBox="0 0 32 32">
<path d="M9.899 2.462l-1.388 6.799h-8.511q0.025-0.181 0.064-0.359l3.825-4.894c0.766-0.98 1.897-1.546 3.089-1.546zM12.549 2.462h7.221l1.39 6.799h-9.999zM11.185 11.774l4.702 18.988q0.274 0.017 0.548-0.006l4.698-18.982zM31.968 11.774c-0.011 0.149-0.025 0.28-0.045 0.409l0.003-0.027-12.59 18.183q-0.234 0.119-0.475 0.204l4.647-18.77zM31.934 9.26l0.066-0.154-3.985-5.099c-0.767-0.98-1.898-1.546-3.089-1.546h-2.79l1.39 6.799zM0 11.774h8.561l4.655 18.806c-0.244-0.078-0.454-0.169-0.652-0.278l0.019 0.010-12.533-18.101c-0.021-0.119-0.038-0.269-0.050-0.421l-0.001-0.016z"></path>
</symbol>
<symbol id="bonus" viewBox="0 0 32 32">
<path d="M28.753 7.031h-2.135c0.281-0.447 0.467-0.947 0.52-1.477 0.169-1.693-0.72-3.213-2.237-3.885-0.454-0.211-0.986-0.334-1.547-0.334-0.982 0-1.875 0.378-2.543 0.995l0.003-0.002-2.696 2.447c-0.525-0.576-1.279-0.937-2.117-0.937-0.84 0-1.595 0.362-2.118 0.938l-0.002 0.002-2.7-2.452c-0.665-0.615-1.559-0.992-2.54-0.992-0.561 0-1.094 0.123-1.571 0.344l0.023-0.010c-1.516 0.673-2.407 2.192-2.237 3.887 0.053 0.529 0.24 1.031 0.52 1.476h-2.127c-1.059 0-1.915 0.859-1.915 1.917v2.875c0 0.528 0.428 0.957 0.956 0.957h27.421c0.528-0.002 0.954-0.43 0.956-0.957v-2.876c0-1.059-0.856-1.917-1.913-1.917zM13.131 6.709v0.32h-4.5c-1.041-0.004-1.883-0.849-1.883-1.891 0-0.163 0.021-0.321 0.059-0.472l-0.003 0.013c0.143-0.558 0.522-1.007 1.021-1.243l0.011-0.005c0.234-0.116 0.51-0.184 0.802-0.184 0.487 0 0.93 0.189 1.259 0.498l-0.001-0.001 3.235 2.937zM25.241 5.297c-0.072 0.996-0.969 1.733-1.967 1.733h-4.405v-0.353l3.184-2.893c0.491-0.444 1.176-0.652 1.811-0.463 0.909 0.272 1.443 1.047 1.377 1.976zM3.247 14.697v14.053c0 1.059 0.856 1.916 1.913 1.916h8.927v-15.969zM17.913 14.697v15.969h8.927c1.057 0 1.913-0.857 1.913-1.916v-14.053z"></path>
</symbol>
<symbol id="crab" viewBox="0 0 32 32">
<path d="M29.198 8.89c-0.56 0.774-1.098 1.524-1.644 2.266-0.25 0.34-0.5 0.69-0.786 1-0.45 0.48-0.886 0.536-1.484 0.264-0.24-0.11-0.486-0.2-0.72-0.316-0.29-0.144-0.48-0.092-0.634 0.206-0.28 0.552-0.598 1.084-0.882 1.634-0.38 0.724-1.048 0.982-1.816 0.688-0.255-0.11-0.663-0.261-1.077-0.401l-0.155-0.045c-0.112-0.034-0.292-0.014-0.378 0.056-1.13 0.916-2.224 1.88-2.944 3.156-0.308 0.524-0.535 1.135-0.646 1.786l-0.004 0.032c-0.148 1.054 0.222 1.34 1.122 1.6 0.834 0.24 1.574-0.020 2.214-0.584 0.122-0.108 0.24-0.224 0.38-0.308 0.506-0.314 0.952-0.164 1.188 0.44 0.192-0.186 0.376-0.348 0.54-0.526 0.704-0.766 1.452-1.478 2.424-1.91q0.18-0.084 0.364-0.142c0.528-0.15 0.882 0.074 0.974 0.608 0.064 0.38 0.24 0.496 0.542 0.268 0.284-0.214 0.51-0.522 0.706-0.824 0.23-0.352 0.37-0.764 0.602-1.114 0.532-0.794 1.314-0.806 1.916-0.060 0.376 0.466 0.548 1.008 0.586 1.592 0.009 0.114 0.014 0.247 0.014 0.381 0 0.665-0.122 1.301-0.346 1.887l0.012-0.036c-0.69 1.834-1.964 3.208-3.468 4.402-2.008 1.596-4.326 2.604-6.734 3.432-1.98 0.68-4.010 1.164-6.108 1.306-2.466 0.168-4.832-0.208-6.98-1.488-1.38-0.824-2.614-1.82-3.42-3.246-0.756-1.334-1.096-2.786-1.19-4.294-0.14-2.246 0.122-4.436 1.068-6.512 0.857-1.844 1.973-3.42 3.325-4.759l0.001-0.001c2.063-2.089 4.533-3.769 7.283-4.912l0.147-0.054c2.668-1.080 5.448-1.712 8.336-1.698 0.003 0 0.006 0 0.009 0 2.695 0 5.252 0.592 7.548 1.654l-0.111-0.046c0.7 0.32 1.364 0.72 1.81 1.362 0.228 0.33 0.434 0.722 0.49 1.11 0.084 0.58 0.066 1.186 0.020 1.774-0.036 0.444-0.32 0.756-0.79 0.84-0.47 0.086-0.896 0.024-1.21-0.38-0.020-0.024-0.046-0.044-0.096-0.090z"></path>
</symbol>
<symbol id="sportsbook" viewBox="0 0 32 32">
<path d="M0 16c0-8.822 7.178-16 16-16 1.529 0 3.008 0.216 4.41 0.618-2.272 1.058-3.847 3.361-3.847 6.032 0 0.853 0.161 1.669 0.454 2.419v0.033l0.018 0.013c0.926 2.319 3.12 3.994 5.725 4.17l0.031 0.023 0.037-0.018c0.128 0.007 0.256 0.011 0.385 0.011 3.267 0 5.985-2.357 6.545-5.463 1.424 2.391 2.243 5.183 2.243 8.162 0 8.822-7.178 16-16 16s-16-7.178-16-16zM15.018 5.194l-4.114-2.22c-2.282 0.896-4.274 2.366-5.79 4.242l0.98 4.552 3.154 1.54 5.77-4.206v-3.908zM2.070 17.36c0.234 2.414 1.084 4.648 2.39 6.548l4.444 0.246 1.966-2.356-2.326-6.606-3.088-1.51-3.386 3.678zM16 30c1.234 0 2.424-0.176 3.566-0.478l1.942-4.19-1.97-2.332h-7.068l-2.006 2.41 1.258 3.916c1.35 0.434 2.786 0.674 4.278 0.674zM21.134 21.796l1.934 2.29 4.974-0.982c1.018-1.718 1.688-3.66 1.89-5.742l-3.366-3.676-3.074 1.506-2.358 6.604z"></path>
<path d="M24.837 4.207l-1.624-3.414-1.624 3.414-3.59 0.569 2.586 2.679-0.595 3.766 3.223-1.758 3.223 1.758-0.595-3.766 2.586-2.679-3.59-0.569z"></path>
</symbol>
<symbol id="virtual" viewBox="0 0 32 32">
<path d="M21.714 28.308c0.686 0 1.143-0.448 1.143-1.119s-0.457-1.119-1.143-1.119h-11.429c-0.686 0-1.143 0.448-1.143 1.119s0.457 1.119 1.143 1.119h11.429z"></path>
<path d="M13.371 12.42l2.057-1.455v-1.678l-1.943-1.343c-0.914 0.448-1.714 1.007-2.286 1.79l0.686 2.238 1.486 0.448z"></path>
<path d="M14.743 16.336l-0.914 1.231 0.686 2.238c0.457 0.112 0.914 0.224 1.486 0.224s1.029-0.112 1.486-0.224l0.686-2.238-0.914-1.231h-2.514z"></path>
<path d="M20.114 11.86l0.686-2.238c-0.686-0.783-1.486-1.343-2.4-1.678l-1.829 1.343v1.566l2.057 1.455 1.486-0.448z"></path>
<path d="M13.029 13.315l-1.486-0.448-1.943 1.343c0.114 1.007 0.457 1.902 0.914 2.797h2.4l0.914-1.231-0.8-2.462z"></path>
<path d="M18.971 13.315l-0.8 2.462 0.914 1.231h2.4c0.457-0.783 0.8-1.79 0.914-2.797l-1.943-1.343-1.486 0.448z"></path>
<path d="M30.857 3.692h-29.714c-0.686 0-1.143 0.448-1.143 1.119v17.902c0 0.671 0.457 1.119 1.143 1.119h29.714c0.686 0 1.143-0.448 1.143-1.119v-17.902c0-0.671-0.457-1.119-1.143-1.119zM16 21.035c-4.114 0-7.429-3.245-7.429-7.273s3.314-7.273 7.429-7.273c4.114 0 7.429 3.245 7.429 7.273s-3.314 7.273-7.429 7.273z"></path>
</symbol>
</defs>
</svg>
